<svg width="25" height="40" viewBox="0 0 25 40" fill="none" xmlns="http://www.w3.org/2000/svg">
<path d="M12.5413 0C18.6923 0.0372177 23.9508 4.61345 24.8665 10.6745C25.2069 12.9254 24.7347 15.0057 23.8733 17.0457C22.5955 20.0689 20.9261 22.8773 19.035 25.5438C17.1904 28.1436 15.2341 30.6643 13.3135 33.2091C12.8127 33.8728 12.2397 33.8627 11.7147 33.2191C8.3822 29.1283 5.24428 24.8987 2.722 20.2503C1.93733 18.8043 1.26353 17.2861 0.671925 15.7493C-0.452361 12.83 -0.0995685 9.93946 1.23794 7.19077C3.20428 3.14955 6.47866 0.811036 10.9208 0.124834C11.455 0.0434207 12.0008 0.0403192 12.5413 0ZM12.4979 31.4149C12.6087 31.2892 12.6731 31.2257 12.7266 31.1536C14.3037 29.0275 15.9188 26.9286 17.4447 24.7668C19.211 22.2655 20.8191 19.6626 22.0698 16.8558C22.8832 15.0305 23.4236 13.172 23.1553 11.1203C22.5133 6.20838 18.4201 2.24082 13.4834 1.82289C9.07693 1.44994 4.95739 3.70781 2.95461 7.6591C1.77528 9.98598 1.33486 12.4447 2.24127 14.9623C2.77628 16.4495 3.43301 17.9064 4.17814 19.3005C6.04368 22.7951 8.35273 26.0043 10.7401 29.1562C11.3084 29.9052 11.8938 30.6395 12.4979 31.4149Z" fill="#C99012"/>
<path d="M12.9342 39.449C9.54355 39.3986 6.61033 39.1211 3.79186 38.1022C2.85211 37.7626 1.96122 37.3245 1.1967 36.667C-0.359463 35.3287 -0.374199 33.5593 1.16879 32.2063C2.31478 31.2007 3.71665 30.7091 5.14876 30.2958C5.63104 30.1562 6.1265 30.0609 6.61808 29.9546C7.181 29.8321 7.62994 30.0942 7.75012 30.6052C7.86487 31.0944 7.53302 31.5232 6.98251 31.6744C5.98926 31.9466 4.98283 32.1916 4.0237 32.5583C3.39642 32.7979 2.79784 33.174 2.26981 33.5935C1.58981 34.1347 1.6247 34.7069 2.28764 35.2783C3.21111 36.0739 4.33772 36.4631 5.48216 36.7911C8.10214 37.5416 10.7872 37.7339 13.4987 37.6556C15.976 37.5843 18.4184 37.2788 20.7445 36.3778C21.4106 36.1196 22.0588 35.7629 22.6364 35.3435C23.4537 34.7495 23.4312 34.1184 22.6419 33.4795C21.6137 32.6475 20.3793 32.2621 19.131 31.9194C18.7829 31.8241 18.4262 31.7628 18.0757 31.6744C17.5601 31.5434 17.2887 31.1278 17.3833 30.6315C17.4732 30.1609 17.878 29.8639 18.3928 29.9616C20.1273 30.2904 21.8076 30.7827 23.2963 31.7744C24.0298 32.2629 24.6516 32.8662 24.899 33.747C25.1719 34.7185 24.8734 35.5582 24.2166 36.2832C23.5436 37.0268 22.6845 37.5005 21.7742 37.8836C19.8513 38.6923 17.8253 39.0699 15.7628 39.2676C14.6835 39.3715 13.5987 39.4079 12.9342 39.449Z" fill="#C99012"/>
<path d="M12.6453 16.7248C9.76248 16.6961 7.46584 14.3622 7.49142 11.4856C7.51701 8.62294 9.87956 6.33017 12.7647 6.36739C15.6266 6.40461 17.8876 8.75475 17.8573 11.6624C17.8286 14.4514 15.4591 16.7527 12.6453 16.7248ZM16.0957 11.55C16.0879 9.62782 14.555 8.10267 12.6406 8.11119C10.7674 8.11972 9.2422 9.68209 9.25306 11.5802C9.26314 13.4457 10.8069 14.981 12.6717 14.9794C14.5581 14.9779 16.1034 13.431 16.0957 11.55Z" fill="#C99012"/>
</svg>
