<svg width="35" height="35" viewBox="0 0 35 35" fill="none" xmlns="http://www.w3.org/2000/svg">
<path d="M4.22501 3.2031C4.165 2.23175 4.23626 1.30915 5.02385 0.617827C5.46264 0.232786 5.97644 -0.0372401 6.55025 0.0227663C7.04281 0.0740217 7.58537 0.200282 7.98166 0.472811C8.36545 0.735339 8.68674 1.19039 8.85925 1.63043C9.03927 2.08923 9.01052 2.63054 9.07678 3.1606C9.85436 3.1606 10.6407 3.1606 11.4858 3.1606C11.4283 2.15549 11.5145 1.20164 12.3771 0.53032C12.8359 0.172782 13.3547 -0.0172398 13.9385 0.0052626C14.7374 0.0365159 15.3712 0.386553 15.84 1.03287C16.2975 1.66419 16.3 2.39802 16.2725 3.18435C16.7138 3.18435 17.1151 3.18435 17.5152 3.18435C17.9015 3.18435 18.2878 3.18435 18.724 3.18435C18.724 2.88182 18.7165 2.62054 18.7253 2.36051C18.7728 1.02912 19.8317 -0.00473953 21.1381 0.000261C22.4357 0.00651166 23.4571 1.01162 23.5096 2.34051C23.5196 2.60179 23.5108 2.86432 23.5108 3.15435C24.3471 3.15435 25.1335 3.15435 25.9898 3.15435C25.9898 2.87432 25.9798 2.59804 25.9911 2.32301C26.0498 1.01787 27.0599 0.019013 28.3338 0.000261C29.6252 -0.018491 30.6903 0.975367 30.7728 2.28426C30.7916 2.57804 30.7753 2.87432 30.7753 3.2056C30.9428 3.24186 31.0904 3.27186 31.2366 3.30561C33.4831 3.82942 34.9933 5.73712 34.9958 8.09487C35.0033 14.0355 34.9983 19.9761 34.9983 25.9168C34.9983 27.2894 35.002 28.6608 34.997 30.0334C34.9858 32.9113 32.9168 34.994 30.0428 34.9965C21.6856 35.0027 13.3285 35.0015 4.97134 34.9965C2.07479 34.9952 0.00331716 32.91 0.00206703 30.0022C-0.00168337 22.8139 0.000815673 15.6269 0.000815673 8.43866C0.000815673 5.58835 1.37346 3.86192 4.22501 3.2031ZM1.3097 11.309C1.3097 11.5015 1.3097 11.669 1.3097 11.8365C1.3097 17.8709 1.30845 23.904 1.3097 29.9384C1.3097 32.2162 2.77611 33.6876 5.04885 33.6876C13.3435 33.6888 21.6381 33.6888 29.934 33.6876C32.2142 33.6876 33.6869 32.2224 33.6869 29.9522C33.6894 23.9028 33.6881 17.8534 33.6881 11.8028C33.6881 11.639 33.6881 11.474 33.6881 11.3077C22.8645 11.309 12.1121 11.309 1.3097 11.309ZM1.2697 9.93632C12.1346 9.93632 22.8982 9.93632 33.6769 9.93632C33.6769 9.16749 33.7319 8.43116 33.6656 7.70483C33.5419 6.35719 32.8293 5.38333 31.6017 4.80702C31.3591 4.69326 31.0904 4.63826 30.7791 4.5395C30.7791 4.85953 30.7866 5.09205 30.7778 5.32458C30.7291 6.66472 29.6865 7.68358 28.3688 7.68108C27.0662 7.67858 26.0473 6.68472 25.9898 5.35333C25.9786 5.0783 25.9886 4.80327 25.9886 4.49574C25.5298 4.49574 25.141 4.49574 24.7534 4.49574C24.3547 4.49574 23.9546 4.49574 23.5258 4.49574C23.5146 5.30083 23.5596 6.0584 23.062 6.69722C22.572 7.32854 21.9394 7.66733 21.1368 7.67858C20.5517 7.68733 20.0367 7.49356 19.5879 7.12227C18.7691 6.44469 18.659 5.51585 18.7315 4.49449C18.2915 4.49449 17.9052 4.49449 17.5202 4.49449C17.1189 4.49449 16.7188 4.49449 16.275 4.49449C16.275 4.79202 16.2813 5.03705 16.2738 5.28332C16.2363 6.65222 15.1924 7.68483 13.8548 7.67858C12.5371 7.67233 11.5258 6.65472 11.4858 5.29207C11.4783 5.03455 11.4845 4.77702 11.4845 4.49574C11.017 4.49574 10.6282 4.49574 10.2394 4.49574C9.84186 4.49574 9.44556 4.49574 9.01177 4.49574C9.01177 4.81702 9.01927 5.06455 9.01052 5.31208C8.95927 6.69722 7.92915 7.69608 6.57651 7.67983C5.27137 7.66358 4.25002 6.62221 4.21876 5.27082C4.21376 5.0458 4.21751 4.82078 4.21751 4.5895C2.83861 4.77327 1.63599 5.87589 1.41597 7.24978C1.2772 8.11987 1.31345 9.01622 1.2697 9.93632ZM7.70163 3.86942C7.70163 3.38812 7.71538 2.90557 7.69788 2.42427C7.67413 1.7667 7.22408 1.3154 6.62151 1.31415C6.02395 1.3129 5.54766 1.77545 5.5339 2.42177C5.51515 3.36937 5.51515 4.31822 5.5339 5.26582C5.5464 5.91964 6.00895 6.36844 6.61777 6.36969C7.22908 6.37094 7.67288 5.93089 7.69788 5.26957C7.71538 4.80327 7.70163 4.33572 7.70163 3.86942ZM12.7972 3.83942C12.7972 4.32322 12.7834 4.80702 12.8009 5.28958C12.8234 5.92464 13.2647 6.36094 13.8585 6.36844C14.4511 6.37594 14.9374 5.94714 14.9549 5.32333C14.9824 4.34197 14.9812 3.35937 14.9562 2.37676C14.9399 1.75795 14.4511 1.3129 13.8685 1.3154C13.2785 1.31915 12.8272 1.76045 12.8034 2.38927C12.7834 2.87182 12.7984 3.35562 12.7972 3.83942ZM22.2019 3.87442C22.2019 3.39062 22.2144 2.90682 22.1994 2.42427C22.1782 1.7642 21.7269 1.3104 21.1206 1.3129C20.5205 1.3154 20.0504 1.78045 20.0392 2.43177C20.0217 3.38312 20.0192 4.33447 20.0417 5.28457C20.0567 5.93339 20.5405 6.37969 21.1518 6.36594C21.7456 6.35344 22.1769 5.91589 22.1994 5.27582C22.2144 4.81077 22.2007 4.34197 22.2019 3.87442ZM27.2987 3.84317C27.2975 3.84317 27.2962 3.84317 27.295 3.84317C27.295 4.29447 27.295 4.74452 27.295 5.19582C27.295 5.22707 27.2962 5.25832 27.2975 5.28958C27.3375 5.92464 27.7613 6.35844 28.3526 6.36969C28.9651 6.38094 29.4452 5.94214 29.4614 5.29333C29.4852 4.33072 29.4839 3.36562 29.4614 2.40302C29.4464 1.76295 28.9514 1.3054 28.3538 1.31665C27.7675 1.3279 27.3262 1.76795 27.3012 2.40052C27.2825 2.87932 27.2987 3.36187 27.2987 3.84317Z" fill="#C99012"/>
<path d="M10.8729 17.6359C10.8729 18.0872 10.8854 18.5385 10.8691 18.9898C10.8354 19.9249 10.1428 20.6413 9.20397 20.6688C8.28637 20.6963 7.36752 20.6963 6.44992 20.67C5.49607 20.6413 4.78725 19.9037 4.7735 18.9498C4.75975 18.0635 4.75975 17.1759 4.7735 16.2883C4.78725 15.3382 5.45232 14.6144 6.39742 14.5769C7.34502 14.5394 8.29637 14.5394 9.24397 14.5756C10.1928 14.6119 10.8441 15.3219 10.8716 16.2808C10.8841 16.7321 10.8729 17.1846 10.8729 17.6359ZM9.56401 17.6159H9.56526C9.56526 17.2271 9.55525 16.8384 9.56775 16.4496C9.58025 16.0633 9.41899 15.8658 9.0227 15.8683C8.21386 15.872 7.40503 15.8683 6.59744 15.8708C6.25991 15.872 6.07739 16.0283 6.07864 16.3821C6.08239 17.2059 6.08114 18.0297 6.07989 18.8548C6.07989 19.2049 6.2624 19.3661 6.59994 19.3674C7.42378 19.3686 8.24762 19.3711 9.07271 19.3661C9.39024 19.3649 9.56401 19.2036 9.56401 18.8761C9.56401 18.456 9.56401 18.036 9.56401 17.6159Z" fill="#C99012"/>
<path d="M24.1254 17.6197C24.1254 17.1684 24.1142 16.7171 24.1279 16.2658C24.1554 15.3319 24.8017 14.6181 25.7243 14.5793C26.6869 14.5393 27.6546 14.5406 28.6184 14.5793C29.5385 14.6168 30.2086 15.3382 30.2248 16.2583C30.2423 17.1609 30.2411 18.0635 30.2248 18.9661C30.2086 19.8974 29.5097 20.6337 28.5784 20.6675C27.6458 20.7 26.7107 20.6987 25.7769 20.6687C24.8405 20.6375 24.1567 19.9149 24.1279 18.9748C24.1142 18.5223 24.1254 18.071 24.1254 17.6197ZM25.4331 17.6184C25.4331 18.0222 25.4381 18.4272 25.4318 18.831C25.4256 19.2048 25.6106 19.3698 25.9744 19.3686C26.7832 19.3661 27.592 19.3686 28.3996 19.3673C28.7384 19.3661 28.9197 19.2023 28.9184 18.8535C28.9172 18.0297 28.9159 17.2046 28.9197 16.3808C28.9209 16.057 28.7659 15.8782 28.4446 15.8745C27.6045 15.867 26.7657 15.8695 25.9256 15.872C25.5768 15.8732 25.4256 16.0632 25.4318 16.4058C25.4393 16.8096 25.4331 17.2146 25.4331 17.6184Z" fill="#C99012"/>
<path d="M4.77004 26.628C4.77004 26.1767 4.76005 25.7254 4.77255 25.2741C4.7988 24.344 5.50388 23.6127 6.43022 23.5877C7.36282 23.5639 8.29792 23.5614 9.23177 23.5889C10.1406 23.6152 10.8432 24.329 10.8657 25.2441C10.8882 26.178 10.8894 27.1118 10.8644 28.0457C10.8394 28.9608 10.1356 29.6558 9.21552 29.6796C8.29792 29.7033 7.37907 29.7021 6.46023 29.6808C5.49637 29.6596 4.7963 28.942 4.7713 27.9819C4.76004 27.5306 4.76879 27.0793 4.77004 26.628ZM9.56431 26.6443C9.56431 26.2405 9.55931 25.8354 9.56556 25.4316C9.57181 25.0641 9.40429 24.8866 9.03175 24.8878C8.22291 24.8928 7.41408 24.8916 6.60649 24.8891C6.2352 24.8878 6.07393 25.0716 6.07643 25.4379C6.08269 26.2467 6.08144 27.0556 6.07769 27.8631C6.07644 28.2119 6.2427 28.3782 6.58899 28.3782C7.41282 28.3769 8.23666 28.3757 9.06175 28.3782C9.41304 28.3794 9.56931 28.2019 9.56556 27.8581C9.56056 27.4531 9.56431 27.0493 9.56431 26.6443Z" fill="#C99012"/>
<path d="M27.1652 29.6833C26.6989 29.6833 26.2301 29.6996 25.7651 29.6796C24.85 29.6408 24.1537 28.947 24.1324 28.0282C24.1099 27.0943 24.1087 26.1605 24.1337 25.2266C24.1574 24.319 24.87 23.6114 25.7826 23.5877C26.7164 23.5639 27.6503 23.5614 28.5841 23.5889C29.488 23.6152 30.2018 24.3403 30.2231 25.2441C30.2443 26.178 30.2468 27.1118 30.2218 28.0457C30.1993 28.9333 29.4992 29.6333 28.6129 29.6771C28.1316 29.7008 27.6478 29.6808 27.1652 29.6808C27.1652 29.6821 27.1652 29.6833 27.1652 29.6833ZM28.9192 26.6868C28.9192 26.2667 28.9154 25.8467 28.9204 25.4279C28.9242 25.0891 28.7792 24.8928 28.4266 24.8916C27.5865 24.8891 26.7477 24.8878 25.9076 24.8916C25.6101 24.8928 25.4376 25.0453 25.4363 25.3491C25.4313 26.2042 25.4326 27.0593 25.4351 27.9144C25.4363 28.2182 25.5976 28.3744 25.8989 28.3757C26.739 28.3782 27.5778 28.3769 28.4179 28.3769C28.7692 28.3769 28.9242 28.1957 28.9192 27.8531C28.9142 27.4644 28.9192 27.0756 28.9192 26.6868Z" fill="#C99012"/>
<path d="M17.4584 20.6772C17.0533 20.6772 16.6483 20.6835 16.2445 20.676C15.2044 20.6572 14.4706 19.9634 14.4393 18.9296C14.4131 18.0582 14.4156 17.1856 14.4381 16.3143C14.4656 15.2879 15.1594 14.5929 16.1845 14.5654C17.0558 14.5416 17.9284 14.5429 18.7998 14.5641C19.8461 14.5904 20.5375 15.2904 20.5612 16.3468C20.5812 17.1869 20.58 18.0282 20.5612 18.8683C20.5375 19.9584 19.8111 20.6622 18.7198 20.676C18.2985 20.6822 17.8784 20.6772 17.4584 20.6772ZM17.4846 19.3671C17.8897 19.3671 18.2935 19.3634 18.6985 19.3684C19.0648 19.3721 19.2511 19.1921 19.2536 18.8321C19.2573 18.0232 19.2561 17.2144 19.2548 16.4043C19.2536 16.0718 19.1023 15.8717 18.7498 15.8717C17.9097 15.8705 17.0696 15.8692 16.2295 15.873C15.902 15.8742 15.7482 16.0643 15.7457 16.3768C15.7407 17.2019 15.7395 18.0257 15.7457 18.8508C15.7482 19.1871 15.927 19.3671 16.2708 19.3671C16.6758 19.3671 17.0796 19.3671 17.4846 19.3671Z" fill="#C99012"/>
<path d="M17.4904 29.6872C17.0541 29.6872 16.6191 29.6959 16.1828 29.6847C15.2077 29.6597 14.4901 29.0033 14.4476 28.0282C14.4063 27.0956 14.4038 26.1593 14.4501 25.2279C14.4976 24.2578 15.2277 23.5978 16.2015 23.584C17.0579 23.5715 17.9142 23.5728 18.7693 23.5828C19.7907 23.5953 20.5182 24.2741 20.557 25.293C20.5907 26.1943 20.592 27.0994 20.5557 28.0007C20.5145 29.0008 19.7982 29.6634 18.7993 29.6872C18.3617 29.6959 17.9254 29.6872 17.4904 29.6872ZM17.4992 28.377C17.9042 28.377 18.308 28.3708 18.713 28.3795C19.0881 28.387 19.2556 28.1983 19.2556 27.8395C19.2568 27.0306 19.2593 26.2218 19.2531 25.413C19.2506 25.0817 19.0868 24.8904 18.7368 24.8904C17.9117 24.8917 17.0879 24.8917 16.2628 24.8904C15.9115 24.8904 15.7477 25.0792 15.7465 25.4117C15.7402 26.2205 15.744 27.0294 15.744 27.8382C15.744 28.197 15.9102 28.387 16.2853 28.3795C16.6891 28.3708 17.0941 28.377 17.4992 28.377Z" fill="#C99012"/>
</svg>
