<svg width="25" height="25" viewBox="0 0 25 25" fill="none" xmlns="http://www.w3.org/2000/svg">
<path d="M24.9987 20.2661C24.8326 21.1349 24.2865 21.7535 23.6667 22.3352C23.1865 22.7858 22.7361 23.268 22.2766 23.7398C21.2968 24.7462 20.0844 25.0824 18.7194 24.9835C16.904 24.8516 15.2347 24.2382 13.6241 23.4328C10.765 22.003 8.23672 20.1259 6.05551 17.7911C3.7987 15.3749 1.95679 12.6847 0.781848 9.57233C0.293259 8.27891 -0.0486255 6.95511 0.00566227 5.5544C0.0483169 4.45877 0.428975 3.51505 1.22326 2.74262C1.8592 2.12467 2.4861 1.49703 3.10911 0.865511C3.54988 0.418212 4.08177 0.148022 4.6841 0C4.89544 0 5.10742 0 5.31875 0C6.13953 0.142205 6.73282 0.645093 7.29315 1.2165C8.17015 2.1111 9.06525 2.9876 9.94937 3.87573C10.5349 4.46394 10.9052 5.14653 10.8445 6.00816C10.8012 6.61835 10.5465 7.14127 10.1329 7.57564C9.54997 8.18842 8.94698 8.78245 8.34336 9.37518C8.22186 9.49412 8.21668 9.5775 8.28842 9.72617C8.92178 11.0396 9.84467 12.1417 10.8212 13.2031C11.9503 14.4306 13.2047 15.51 14.6446 16.362C14.8611 16.49 15.0964 16.5856 15.3135 16.7123C15.4376 16.7847 15.51 16.7595 15.6043 16.6632C16.1343 16.1228 16.6675 15.5863 17.2052 15.0543C17.677 14.5876 18.2076 14.2289 18.8926 14.1565C19.7748 14.0634 20.4767 14.4248 21.0803 15.0227C22.1027 16.0362 23.1193 17.0562 24.1392 18.0736C24.589 18.5222 24.8701 19.0606 25 19.6799C24.9987 19.8757 24.9987 20.0709 24.9987 20.2661ZM1.38224 5.95063C1.41714 6.28158 1.43266 6.61641 1.48953 6.94348C1.73059 8.32481 2.24438 9.6137 2.859 10.8645C3.85557 12.8935 5.15718 14.715 6.66431 16.3943C9.15767 19.1725 12.106 21.3191 15.5442 22.7806C16.6888 23.2673 17.8805 23.5821 19.1337 23.6125C20.0159 23.6338 20.7688 23.3501 21.3815 22.6901C21.9069 22.1239 22.464 21.5867 23.0062 21.0353C23.1032 20.9371 23.2001 20.8375 23.288 20.7309C23.6893 20.2474 23.6874 19.7044 23.2822 19.2248C23.1982 19.1253 23.107 19.0322 23.0146 18.9404C22.1635 18.0885 21.3117 17.2372 20.4592 16.3859C20.2925 16.2191 20.1296 16.0472 19.9532 15.8914C19.4323 15.4312 18.8745 15.4312 18.3543 15.8843C18.2683 15.9593 18.1875 16.0394 18.1068 16.1202C17.5322 16.6968 16.9628 17.2779 16.3838 17.85C15.9029 18.325 15.5119 18.3819 14.9051 18.0794C14.5923 17.9236 14.2756 17.7737 13.9738 17.5979C12.3057 16.6257 10.8761 15.3652 9.58551 13.94C8.52819 12.7726 7.55554 11.5457 6.90926 10.0914C6.62231 9.44564 6.67659 9.07267 7.17552 8.57302C7.75589 7.99127 8.34271 7.41534 8.92049 6.83036C9.64626 6.09607 9.64303 5.55827 8.91273 4.82463C7.94201 3.84988 6.96807 2.879 5.99541 1.90684C5.93789 1.84931 5.87843 1.79372 5.81704 1.74072C5.30259 1.29924 4.74421 1.2973 4.23171 1.73749C4.14575 1.81182 4.06432 1.89197 3.98418 1.97277C3.43872 2.52091 2.90941 3.08585 2.34521 3.61394C1.66209 4.25193 1.34993 5.02177 1.38224 5.95063Z" fill="#C99012"/>
</svg>
